<svg width="133" height="46" viewBox="0 0 133 46" fill="none" xmlns="http://www.w3.org/2000/svg">
<path d="M115 22C115 31.3888 107.165 39 97.5 39C87.835 39 80 31.3888 80 22C80 12.6112 87.835 5 97.5 5C107.165 5 115 12.6112 115 22Z" fill="#12ADA4"/>
<path d="M133 22C133 31.3888 125.165 39 115.5 39C105.835 39 98 31.3888 98 22C98 12.6112 105.835 5 115.5 5C125.165 5 133 12.6112 133 22Z" fill="#1DD3C9"/>
<path d="M13.288 31.96C13.288 34.616 12.808 36.808 11.848 38.536C10.92 40.264 9.672 41.608 8.104 42.568C6.568 43.56 4.728 44.408 2.584 45.112L0.472 39.544C1.88 39 2.936 38.376 3.64 37.672C4.344 36.968 4.808 36.152 5.032 35.224C5.288 34.296 5.416 33.112 5.416 31.672V3.736H13.288V31.96Z" fill="#111111"/>
<path d="M18.3464 24.904V19.048H33.6584V24.904H18.3464Z" fill="#111111"/>
<path d="M61.6053 1.38399V37H54.8853L54.5013 34.024C52.7093 36.552 50.2933 37.816 47.2533 37.816C44.0852 37.816 41.6692 36.6 40.0052 34.168C38.3732 31.736 37.5573 28.408 37.5573 24.184C37.5573 21.592 37.9892 19.272 38.8532 17.224C39.7172 15.176 40.9333 13.576 42.5013 12.424C44.1013 11.272 45.9253 10.696 47.9733 10.696C50.4053 10.696 52.4213 11.496 54.0213 13.096V0.567993L61.6053 1.38399ZM49.6053 32.248C51.3653 32.248 52.8373 31.288 54.0213 29.368V18.376C53.4133 17.64 52.7893 17.096 52.1493 16.744C51.5413 16.392 50.8373 16.216 50.0373 16.216C48.6293 16.216 47.5093 16.872 46.6772 18.184C45.8452 19.496 45.4292 21.512 45.4292 24.232C45.4292 27.208 45.7812 29.288 46.4852 30.472C47.2212 31.656 48.2613 32.248 49.6053 32.248Z" fill="#111111"/>
<path d="M89.7625 23.752C89.7625 24.808 89.7145 25.72 89.6185 26.488H73.8265C74.0825 28.632 74.6905 30.136 75.6505 31C76.6105 31.864 77.9385 32.296 79.6345 32.296C80.6585 32.296 81.6505 32.12 82.6105 31.768C83.5705 31.384 84.6105 30.808 85.7305 30.04L88.8505 34.264C85.8745 36.632 82.5625 37.816 78.9145 37.816C74.7865 37.816 71.6185 36.6 69.4105 34.168C67.2025 31.736 66.0985 28.472 66.0985 24.376C66.0985 21.784 66.5625 19.464 67.4905 17.416C68.4185 15.336 69.7785 13.704 71.5705 12.52C73.3625 11.304 75.5065 10.696 78.0025 10.696C81.6825 10.696 84.5625 11.848 86.6425 14.152C88.7225 16.456 89.7625 19.656 89.7625 23.752ZM82.3225 21.592C82.2585 17.688 80.8825 15.736 78.1945 15.736C76.8825 15.736 75.8585 16.216 75.1225 17.176C74.4185 18.136 73.9865 19.72 73.8265 21.928H82.3225V21.592Z" fill="#111111"/>
<path d="M115.584 11.512L107.568 37H98.5919L90.3839 11.512H98.6399L103.152 31.24L107.856 11.512H115.584Z" fill="#111111"/>
</svg>
